 <svg  version="1.0" xmlns="http://www.w3.org/2000/svg"  width="483.000000pt" height="480.000000pt" viewBox="0 0 483.000000 480.000000"  preserveAspectRatio="xMidYMid meet">  <g transform="translate(0.000000,480.000000) scale(0.100000,-0.100000)" fill="#0081c2" stroke="none"> <path d="M2150 4785 c0 -8 7 -15 15 -15 8 0 15 7 15 15 0 8 -7 15 -15 15 -8 0 -15 -7 -15 -15z"/> <path d="M2320 4785 c0 -8 9 -15 20 -15 11 0 20 7 20 15 0 8 -9 15 -20 15 -11 0 -20 -7 -20 -15z"/> <path d="M2237 4757 c-3 -7 -24 -19 -46 -26 -59 -17 -84 -59 -76 -127 5 -41 2 -55 -15 -76 -22 -28 -11 -49 15 -28 16 13 35 5 35 -15 0 -21 -39 -40 -53 -26 -16 16 -37 14 -37 -4 0 -12 -68 -13 -507 -9 -591 7 -589 7 -599 17 -13 12 -34 8 -34 -8 0 -20 -8 -19 -55 5 -73 37 -145 5 -190 -84 -25 -49 -25 -53 -11 -81 9 -17 16 -37 16 -47 0 -17 53 -41 65 -30 4 4 12 0 18 -9 17 -23 78 -30 99 -11 15 12 20 13 34 2 11 -10 18 -10 22 -3 4 6 32 12 62 14 49 4 56 2 65 -18 12 -29 23 -29 27 -2 2 18 10 22 43 24 22 0 44 -1 48 -3 14 -7 -15 -32 -37 -32 -13 0 -33 -11 -46 -25 -13 -14 -34 -25 -47 -25 -25 0 -29 -11 -12 -42 8 -16 8 -31 -2 -60 -8 -27 -9 -42 -2 -46 5 -4 13 -19 17 -34 5 -21 13 -28 30 -28 13 0 29 -7 36 -15 7 -8 20 -15 30 -15 10 0 23 -7 30 -15 18 -22 29 -19 36 10 6 26 18 32 29 15 8 -12 102 -13 109 -1 3 4 53 8 112 9 l106 1 32 -32 31 -32 0 -140 c0 -140 0 -140 -23 -139 -20 1 -22 -3 -16 -28 4 -22 1 -33 -12 -42 -21 -16 -12 -51 11 -42 13 5 14 2 4 -15 -9 -18 -16 -20 -51 -14 -36 6 -40 5 -34 -10 8 -23 -10 -44 -33 -38 -24 6 -35 -11 -16 -27 23 -19 1 -54 -25 -40 -11 6 -20 17 -20 25 0 8 -4 15 -10 15 -5 0 -10 -9 -10 -20 0 -11 5 -20 11 -20 5 0 7 -4 4 -10 -4 -6 -13 -5 -25 2 -11 7 -23 9 -27 4 -4 -4 0 -12 10 -17 10 -6 17 -22 17 -39 0 -35 -16 -48 -25 -20 -9 27 -35 26 -35 -2 0 -25 -7 -36 -32 -57 -17 -12 -18 -11 -12 20 3 19 2 29 -3 24 -27 -34 -62 -43 -181 -46 -67 -2 -123 -2 -123 1 -7 26 -11 94 -15 255 -6 208 -24 350 -48 388 -15 23 -22 24 -99 23 -62 -1 -85 3 -94 14 -6 8 -15 12 -19 8 -4 -4 -1 -14 6 -23 18 -21 -4 -45 -41 -45 -31 0 -40 25 -18 47 8 8 5 13 -10 18 -16 5 -21 15 -21 41 0 29 4 34 23 34 20 1 20 2 4 11 -14 8 -17 21 -15 62 1 29 6 58 11 65 11 14 11 14 -25 30 -16 6 -28 19 -28 30 0 10 -7 27 -15 38 -14 19 -15 18 -34 -5 -18 -23 -22 -24 -57 -13 -47 14 -64 5 -98 -52 -26 -44 -37 -132 -19 -150 13 -12 14 -57 12 -556 -1 -392 -4 -476 -15 -483 -21 -12 -17 -27 7 -27 20 0 21 -4 14 -47 -4 -27 -10 -50 -14 -53 -18 -12 -17 -36 1 -57 13 -14 18 -28 13 -42 -9 -30 -42 -26 -52 6 -9 27 -10 27 -17 -15 -5 -37 -9 -43 -24 -37 -68 30 -89 29 -134 0 -63 -42 -68 -52 -67 -119 2 -97 6 -105 79 -134 36 -14 70 -32 76 -41 6 -8 18 -12 28 -8 14 5 15 11 6 27 -9 16 -8 22 6 27 10 4 20 0 26 -11 7 -13 20 -16 46 -14 31 3 37 0 37 -17 0 -14 -6 -19 -20 -18 -35 4 -47 -5 -36 -26 7 -13 18 -17 31 -14 18 5 20 1 20 -39 0 -24 -7 -54 -16 -66 -9 -13 -12 -27 -7 -35 9 -13 10 -69 17 -605 4 -314 3 -374 -9 -378 -10 -4 -12 -15 -8 -35 4 -21 0 -36 -12 -50 -14 -15 -16 -22 -7 -31 7 -7 12 -20 12 -29 0 -10 12 -35 26 -58 24 -36 32 -41 79 -46 64 -8 87 -2 126 36 30 30 49 37 49 19 0 -5 5 -10 10 -10 17 0 11 26 -10 45 -17 16 -18 20 -5 38 19 27 19 53 0 61 -17 6 -20 37 -4 53 8 8 7 16 -2 31 -10 17 -10 23 0 36 12 14 11 19 -3 35 -19 21 -18 72 2 79 8 2 12 -7 12 -27 0 -42 18 -49 31 -11 10 28 13 30 28 16 9 -8 36 -28 61 -45 39 -26 45 -28 55 -14 8 11 20 14 36 10 18 -5 30 1 56 30 18 19 33 41 33 47 0 7 7 21 15 32 20 26 19 80 -1 88 -15 6 -15 8 1 25 12 14 14 24 7 37 -6 11 -11 13 -16 5 -20 -32 -26 1 -26 149 0 100 4 160 10 160 6 0 10 -21 11 -47 0 -27 4 -70 9 -98 l7 -50 3 75 c1 41 5 89 9 105 6 27 10 30 51 33 44 3 145 2 244 -1 51 -2 57 -7 97 -84 9 -18 15 -20 26 -12 18 16 16 25 -9 49 -16 15 -19 23 -11 31 8 8 16 3 28 -20 18 -35 33 -55 83 -102 18 -18 32 -42 32 -56 0 -26 17 -30 34 -7 13 18 46 9 46 -12 0 -10 -7 -13 -25 -8 -19 5 -25 2 -25 -9 0 -23 15 -28 46 -17 36 14 54 -2 35 -32 -11 -17 -11 -22 1 -29 7 -5 15 -9 18 -9 11 0 40 -59 40 -79 0 -13 -9 -25 -23 -30 -22 -8 -23 -14 -19 -68 5 -75 -14 -170 -36 -182 -9 -4 -99 -9 -200 -10 -157 -2 -183 0 -188 13 -5 12 -21 16 -65 16 -46 0 -59 3 -59 15 0 22 -18 18 -25 -5 -3 -11 -13 -20 -21 -20 -8 0 -14 -10 -14 -25 0 -29 -28 -45 -41 -24 -7 11 -9 11 -9 -3 0 -9 4 -19 9 -23 11 -6 9 -100 -2 -111 -12 -12 -8 -21 13 -27 11 -3 24 -16 29 -30 11 -29 47 -57 73 -57 10 0 18 -4 18 -10 0 -16 -167 -13 -182 4 -8 9 -26 12 -49 9 -21 -3 -39 -1 -43 6 -11 17 -26 13 -26 -8 0 -14 -9 -20 -39 -24 -22 -3 -51 -13 -65 -23 -30 -23 -50 -61 -35 -70 6 -3 7 -18 4 -33 -4 -19 0 -35 15 -53 11 -14 20 -33 20 -41 0 -9 19 -19 53 -27 67 -15 115 -14 145 6 19 13 65 15 300 13 152 0 302 -5 332 -9 l55 -7 -47 -2 c-27 0 -48 -5 -48 -11 0 -6 67 -10 183 -10 114 0 177 4 167 9 -8 6 -18 7 -23 4 -4 -3 -25 -2 -44 2 -63 12 -16 25 90 25 94 0 98 -1 107 -24 11 -31 70 -43 70 -14 0 11 -7 18 -20 18 -11 0 -20 5 -20 10 0 12 27 13 34 1 3 -4 16 -6 30 -4 13 3 33 0 45 -6 17 -9 19 -16 11 -30 -10 -20 -4 -31 17 -31 7 0 13 11 13 25 0 29 12 32 31 9 11 -14 10 -18 -5 -30 -13 -9 -17 -20 -13 -36 4 -12 2 -27 -2 -32 -13 -17 -1 -82 19 -103 9 -11 23 -29 29 -42 8 -14 18 -20 28 -17 9 4 21 -1 28 -11 13 -17 14 -17 32 0 25 22 36 22 58 -3 22 -25 37 -26 34 -2 -5 49 1 62 26 62 20 0 25 5 25 25 0 14 8 29 21 36 l21 11 -24 25 c-12 13 -21 25 -19 26 2 1 1 12 -3 25 -5 13 -3 29 3 36 6 8 9 20 6 27 -9 24 10 42 31 31 12 -6 26 -7 36 -1 11 6 20 4 28 -6 14 -16 80 -21 80 -6 0 6 -11 9 -24 8 -14 -1 -25 3 -25 8 -1 7 186 11 535 13 533 3 536 3 541 -18 6 -22 18 -26 29 -9 4 8 27 9 68 5 55 -5 65 -3 99 20 29 19 36 30 32 45 -4 13 -2 19 9 19 9 0 16 6 16 14 0 8 10 22 22 30 19 13 20 16 5 16 -18 0 -31 23 -41 73 -5 20 -12 27 -30 27 -16 0 -26 7 -29 21 -5 18 -11 20 -54 14 -26 -4 -55 -9 -63 -12 -31 -12 -235 -18 -252 -7 -4 3 10 22 31 42 22 21 41 49 43 62 2 19 8 24 26 23 28 -3 30 27 1 34 -16 5 -19 11 -14 33 5 21 0 34 -19 55 -15 16 -26 33 -26 40 0 18 -51 38 -64 25 -7 -7 -16 -4 -28 12 -14 18 -20 20 -26 10 -11 -16 -51 -25 -111 -23 -25 0 -50 -4 -55 -8 -6 -5 -56 -9 -112 -10 l-100 0 -13 34 c-7 19 -18 35 -26 35 -7 0 -17 9 -20 21 -9 28 4 139 17 139 5 0 2 7 -7 17 -11 11 -15 25 -10 42 25 103 26 124 11 139 -14 14 -12 18 16 44 17 15 38 28 45 28 8 0 16 7 19 15 4 8 10 12 16 9 17 -11 60 38 54 63 -5 17 -1 22 16 25 15 2 24 11 26 26 2 13 10 22 21 22 9 0 21 4 26 9 6 5 35 12 66 15 52 7 57 5 62 -14 6 -23 27 -19 27 6 0 16 7 17 120 15 81 -2 86 -3 112 -33 16 -18 31 -27 38 -23 9 6 11 -13 9 -76 -2 -46 0 -90 5 -97 14 -23 -3 -79 -29 -96 -30 -20 -33 -46 -5 -46 17 0 19 -6 17 -42 -3 -49 -32 -67 -40 -26 -4 22 -4 22 -6 1 0 -12 9 -34 22 -50 13 -15 32 -42 42 -60 16 -27 25 -32 71 -38 78 -9 123 2 143 36 22 39 39 36 43 -6 5 -60 23 -39 26 31 2 40 -2 71 -9 80 -11 14 -15 241 -4 252 12 12 15 -12 18 -129 1 -68 7 -130 11 -138 12 -18 9 -158 -3 -179 -5 -10 -4 -23 2 -34 9 -14 8 -20 -7 -31 -13 -10 -15 -16 -8 -21 19 -12 14 -36 -8 -36 -11 0 -20 5 -20 10 0 6 -8 10 -17 10 -14 0 -14 -3 3 -22 26 -29 44 -72 44 -103 0 -14 4 -25 8 -25 4 0 27 -18 50 -40 40 -39 74 -51 87 -30 3 6 17 10 30 10 27 0 75 52 75 81 0 11 7 27 15 35 19 20 19 48 0 64 -16 13 -21 40 -7 40 4 0 6 57 5 128 -6 420 -5 1004 1 1044 8 46 7 48 -20 59 -16 6 -23 13 -17 16 20 7 115 -16 134 -33 14 -13 18 -13 29 0 6 9 27 18 46 22 18 3 38 12 45 20 6 8 18 14 25 14 8 0 14 7 14 16 0 11 6 14 20 9 14 -4 20 -2 20 9 0 8 -5 18 -10 21 -14 9 7 45 25 45 23 0 18 28 -6 35 -17 6 -19 12 -14 37 6 27 5 29 -14 23 -15 -4 -21 -2 -21 8 0 18 -42 37 -84 37 -28 0 -35 5 -40 25 -9 36 -34 32 -38 -7 -4 -38 -22 -40 -26 -3 -3 20 -9 25 -33 25 -24 0 -29 -4 -29 -25 0 -26 -14 -33 -25 -15 -4 6 -1 17 5 25 9 11 12 167 13 599 1 321 5 582 9 580 4 -3 6 1 4 8 -28 92 -29 106 -7 136 27 38 26 43 -4 72 -14 13 -25 32 -25 42 0 29 -130 82 -145 59 -3 -5 -25 -19 -50 -31 -29 -14 -45 -28 -45 -40 0 -10 -7 -21 -15 -24 -13 -5 -14 -10 -4 -27 7 -13 8 -39 4 -67 -6 -42 -5 -45 9 -32 15 12 16 9 10 -27 -4 -26 -2 -43 5 -47 15 -10 14 -56 -4 -106 -11 -32 -12 -52 -5 -85 14 -64 23 -552 10 -560 -7 -4 -10 27 -10 92 0 55 -5 159 -11 232 -7 95 -7 137 0 144 17 17 13 34 -10 40 -18 5 -20 10 -14 34 9 37 10 83 0 111 -6 18 -4 22 14 22 22 0 31 33 12 44 -15 10 -41 -5 -41 -23 0 -32 -13 -32 -42 0 -21 23 -35 30 -51 25 -25 -6 -41 2 -50 24 -4 12 -6 11 -6 -3 -1 -11 -12 -20 -30 -23 -45 -9 -73 -57 -80 -135 -4 -36 -12 -74 -19 -82 -11 -13 -9 -22 12 -54 24 -36 25 -44 25 -191 0 -128 -2 -152 -14 -142 -16 13 -31 -5 -27 -32 2 -12 -8 -20 -35 -27 -48 -14 -79 -14 -143 0 -38 8 -55 8 -63 0 -19 -19 -52 -12 -77 14 -20 22 -25 23 -32 10 -11 -18 -38 -20 -38 -2 0 8 -12 24 -26 38 -14 13 -30 34 -35 46 -4 13 -14 21 -21 18 -21 -7 -59 32 -63 66 -5 33 -39 79 -60 79 -6 0 -19 14 -28 30 -20 34 -42 41 -32 10 4 -12 2 -20 -5 -20 -16 0 -25 31 -10 40 9 5 9 13 1 27 -5 11 -8 23 -4 26 3 3 6 68 7 144 l1 138 30 6 c17 4 23 7 14 8 -29 2 -42 27 -23 45 14 15 37 16 183 12 245 -7 261 -9 272 -29 12 -21 35 -22 43 -1 5 13 14 15 41 10 19 -4 35 -3 35 2 0 4 16 26 35 48 24 27 35 49 35 71 0 17 5 33 11 35 19 6 0 73 -24 83 -13 6 -22 19 -22 33 0 12 -7 27 -15 32 -28 17 4 26 82 22 73 -3 77 -5 65 -22 -17 -28 -3 -34 32 -14 26 15 35 16 70 6 25 -8 42 -20 46 -33 4 -13 11 -17 16 -12 14 14 1 40 -22 46 -25 7 -24 23 2 38 15 8 24 8 32 0 18 -18 27 -12 27 18 0 16 8 43 17 59 16 28 16 32 -2 73 -35 82 -117 124 -179 92 -27 -14 -31 -14 -41 1 -7 9 -23 16 -36 16 -18 0 -20 -3 -11 -12 7 -7 12 -15 12 -19 0 -5 -242 -7 -537 -6 -351 1 -538 5 -538 12 0 6 12 11 28 13 27 3 35 16 18 27 -5 3 -12 1 -15 -4 -3 -5 -18 -12 -33 -16 -15 -3 -32 -14 -39 -23 -10 -14 -16 -14 -38 -4 -65 29 -101 3 -50 -37 25 -20 37 -20 636 -21 594 0 611 1 635 20 44 35 106 21 136 -30 24 -40 21 -71 -9 -108 -23 -28 -33 -32 -75 -32 -32 0 -51 5 -56 15 -8 13 -84 15 -583 16 -316 0 -579 0 -585 0 -7 -1 -9 -124 -8 -353 2 -331 3 -353 20 -356 10 -2 32 -10 50 -18 17 -8 37 -14 44 -14 7 0 20 -7 29 -15 9 -8 27 -16 41 -17 20 -3 24 1 22 22 -1 14 -4 150 -6 302 -3 260 -2 276 14 267 10 -5 152 -9 318 -9 299 0 300 0 335 24 34 23 37 23 81 8 25 -8 51 -24 56 -35 17 -31 4 -97 -25 -126 -31 -30 -85 -31 -124 -1 -23 19 -42 20 -283 20 l-259 0 0 -272 1 -273 40 -25 c70 -43 193 -170 240 -247 13 -21 27 -41 33 -45 5 -3 111 -6 235 -5 124 0 236 -3 248 -7 13 -4 24 -2 29 6 5 7 7 130 6 273 -3 239 -5 262 -23 287 -25 36 -24 50 7 95 43 64 96 71 143 21 36 -39 39 -68 11 -132 -20 -44 -21 -59 -16 -336 3 -160 8 -295 11 -299 2 -5 -2 -14 -10 -21 -12 -10 -79 -12 -295 -8 -154 3 -280 2 -280 -3 0 -7 26 -65 51 -111 5 -10 9 -26 9 -37 0 -48 -11 -46 356 -43 l345 2 1 568 c1 563 1 567 -20 609 -29 55 -28 82 3 116 21 22 34 27 75 27 42 0 52 -4 74 -31 31 -37 33 -77 6 -112 -19 -24 -20 -43 -22 -663 l-3 -639 -25 2 c-14 1 -190 3 -393 5 l-367 3 0 -47 c0 -26 5 -50 11 -53 5 -4 218 -6 472 -5 444 1 462 2 480 20 31 34 75 26 119 -22 41 -44 47 -68 23 -88 -8 -7 -15 -18 -15 -26 0 -40 -95 -59 -130 -24 -19 19 -36 19 -469 20 -248 0 -457 3 -465 6 -19 7 -29 -27 -24 -80 l3 -38 353 2 c204 0 363 5 378 11 56 21 54 39 54 -621 0 -523 2 -609 15 -620 44 -37 20 -127 -43 -157 -30 -14 -35 -14 -65 2 -18 10 -41 31 -50 47 -18 32 -23 78 -8 78 27 0 31 84 34 608 l2 541 -345 3 c-220 2 -349 -1 -357 -7 -14 -13 -63 -136 -63 -160 0 -16 7 -17 63 -12 86 9 493 11 506 3 7 -5 10 -96 8 -291 -4 -272 -3 -286 16 -302 15 -14 18 -27 14 -61 -7 -61 -38 -92 -93 -92 -35 0 -47 5 -73 35 -25 29 -29 41 -24 68 3 17 12 39 19 48 11 12 14 59 14 200 1 101 5 203 9 226 6 33 5 43 -6 47 -8 3 -130 6 -270 6 -250 -1 -256 -1 -279 -23 -13 -12 -24 -27 -24 -34 0 -13 -160 -175 -206 -209 l-29 -21 2 -269 2 -269 228 -2 c187 -2 229 1 236 12 9 17 68 29 101 21 28 -7 66 -63 66 -97 -1 -68 -95 -111 -150 -70 -28 20 -39 21 -282 20 -138 0 -259 -4 -269 -9 -12 -7 -23 -5 -36 8 -18 16 -19 30 -12 297 3 154 3 283 0 287 -4 4 -37 -8 -74 -27 -38 -19 -76 -35 -85 -35 -16 0 -17 -28 -17 -355 0 -230 4 -355 10 -355 6 -1 255 0 555 0 469 1 547 3 561 16 9 8 32 17 51 21 47 7 96 -35 105 -89 5 -33 2 -41 -30 -73 -41 -41 -80 -46 -119 -15 -24 19 -44 19 -624 19 -329 -1 -605 0 -612 0 -11 1 -13 72 -11 398 l3 398 -45 -3 c-24 -2 -48 -8 -54 -13 -6 -6 -8 -182 -7 -464 2 -435 3 -457 23 -494 23 -45 19 -76 -17 -114 -54 -58 -164 -18 -164 59 0 18 9 48 19 66 14 23 19 51 19 93 0 33 1 237 3 453 2 215 2 392 -1 392 -3 1 -24 5 -48 9 -61 12 -72 -1 -60 -73 4 -31 7 -203 6 -382 l-3 -327 -625 1 -625 0 -59 -25 c-59 -24 -59 -24 -85 -5 -38 28 -54 67 -47 116 8 48 27 64 85 67 29 2 45 -2 53 -14 12 -15 66 -16 598 -18 l585 -1 3 341 2 341 -27 6 c-55 12 -69 16 -110 36 -61 30 -77 20 -69 -45 3 -28 6 -148 8 -265 1 -181 -1 -215 -14 -228 -12 -12 -20 -13 -35 -5 -30 16 -582 12 -608 -5 -11 -7 -41 -15 -66 -19 -43 -6 -46 -5 -72 28 -39 52 -36 92 10 134 30 28 41 33 67 27 17 -3 42 -13 56 -22 14 -10 46 -17 75 -18 28 0 140 -1 250 -3 110 -1 206 -2 213 -2 9 1 12 57 12 244 0 274 7 247 -86 315 -96 71 -153 125 -209 198 l-56 73 -265 0 -264 -1 0 -228 c1 -179 4 -231 14 -239 18 -15 29 -72 20 -105 -14 -58 -106 -79 -150 -35 -32 33 -38 107 -11 137 16 18 18 44 17 300 -1 155 1 286 5 292 4 7 17 9 29 6 12 -3 122 -6 245 -7 137 0 234 -5 248 -12 19 -8 27 -7 40 6 15 15 15 18 1 34 -23 27 -48 79 -48 102 0 33 -25 49 -72 46 -24 -2 -178 -4 -343 -4 l-300 -1 3 -557 c2 -499 4 -559 19 -575 19 -21 20 -83 1 -105 -18 -22 -64 -43 -93 -43 -38 0 -85 50 -85 90 0 17 8 43 17 57 17 25 18 71 16 641 -1 548 0 614 14 619 9 3 24 1 34 -5 13 -9 112 -12 338 -11 176 0 334 -3 353 -6 46 -9 62 11 53 64 -4 22 -12 43 -18 48 -7 4 -217 6 -468 3 -416 -5 -457 -6 -473 -22 -10 -11 -33 -18 -55 -18 -85 0 -123 106 -61 170 35 35 69 39 114 11 30 -19 55 -20 485 -22 366 -1 455 1 462 12 4 7 6 17 3 21 -3 4 0 17 6 29 8 14 9 24 2 31 -12 12 -692 14 -736 2 -59 -14 -56 -40 -54 650 3 586 2 633 -15 656 -25 36 -22 79 10 112 36 38 108 40 141 5 26 -28 30 -92 7 -124 -12 -18 -15 -106 -16 -597 l-1 -576 341 -3 341 -3 16 51 c9 27 25 69 35 93 11 24 17 47 14 52 -3 5 -84 7 -188 5 -321 -7 -352 -7 -370 0 -18 8 -23 30 -7 40 6 4 9 122 9 307 0 249 -3 303 -15 315 -8 9 -14 34 -14 66 0 48 3 54 33 75 42 28 74 28 111 -2 24 -20 28 -31 28 -75 0 -34 -5 -58 -16 -70 -14 -15 -16 -50 -13 -277 l2 -259 258 -2 c148 -1 257 2 257 7 0 13 127 169 164 202 17 15 63 51 101 81 39 29 70 59 69 65 -1 7 -2 125 -2 262 l-2 251 -222 -2 c-199 -2 -227 -4 -258 -22 -43 -24 -92 -17 -127 17 -48 48 -15 139 54 152 35 7 93 -11 93 -28 0 -6 106 -8 280 -5 153 2 283 1 287 -2 5 -3 6 -132 3 -286 -3 -154 -2 -284 2 -290 8 -8 26 -2 100 36 10 5 26 9 37 9 10 0 23 6 29 13 6 7 9 140 8 361 l-2 348 -554 -1 c-546 -2 -555 -2 -577 -23 -17 -16 -29 -19 -57 -14 -59 11 -81 37 -81 94 0 41 5 54 25 71 49 42 66 43 124 11 29 -17 56 -27 60 -23 11 12 1176 10 1177 -2 0 -5 0 -187 -1 -403 l-1 -393 57 3 57 3 -2 469 c-2 446 -3 471 -22 494 -23 29 -24 60 -5 106 11 27 21 34 52 39 58 10 61 9 99 -24 41 -36 43 -50 13 -115 -21 -48 -22 -62 -25 -506 l-4 -457 24 -6 c13 -4 39 -5 58 -3 29 3 34 6 32 28 -1 14 -2 197 -3 407 -1 319 -4 382 -15 387 -8 3 -12 12 -9 21 4 8 2 21 -4 28 -18 23 -20 69 -4 96 11 20 13 39 8 75 -9 56 -40 93 -85 102 -16 4 -32 12 -35 20 -7 18 -32 18 -39 1z m489 -564 c5 -20 2 -30 -13 -43 -12 -10 -23 -34 -27 -61 -10 -61 -26 -99 -42 -99 -9 0 -14 12 -14 38 0 20 -3 61 -6 90 -7 57 3 67 38 35 17 -15 18 -15 18 10 0 58 34 80 46 30z m693 17 c28 15 51 12 51 -5 0 -10 -10 -15 -29 -15 -17 0 -33 -4 -36 -10 -3 -5 -17 -10 -30 -10 -13 0 -27 -4 -30 -10 -3 -5 -22 -10 -42 -10 -30 0 -34 2 -23 15 7 8 22 15 34 15 12 0 27 9 34 20 10 17 16 18 32 10 14 -7 26 -8 39 0z m-1983 -13 c5 -4 -2 -10 -14 -14 -12 -3 -22 -12 -22 -19 0 -17 -21 -18 -55 -2 -23 10 -28 10 -36 -5 -14 -24 -32 -21 -59 8 -27 28 -25 29 19 14 28 -10 34 -9 46 8 11 16 25 20 64 19 27 -1 53 -5 57 -9z m229 3 c4 -6 -5 -10 -20 -10 -15 0 -24 4 -20 10 3 6 12 10 20 10 8 0 17 -4 20 -10z m1188 -10 c9 0 17 -7 17 -15 0 -11 -13 -15 -54 -15 -54 0 -73 10 -60 31 4 7 21 9 43 5 20 -3 44 -6 54 -6z m294 -2 c-35 -8 -52 -7 -60 1 -8 8 5 11 49 10 l59 -1 -48 -10z m373 -13 c0 -8 -9 -15 -20 -15 -11 0 -20 7 -20 15 0 8 9 15 20 15 11 0 20 -7 20 -15z m-1820 -9 c0 -18 -16 -29 -30 -21 -13 8 -1 35 16 35 8 0 14 -6 14 -14z m190 -26 c0 -23 -37 -27 -89 -9 -49 17 -37 29 29 29 53 0 60 -2 60 -20z m26 -42 c4 -7 -2 -18 -14 -26 -12 -8 -22 -23 -22 -33 0 -11 -4 -19 -10 -19 -12 0 -13 15 -4 59 7 32 35 43 50 19z m754 -163 c0 -8 -5 -17 -10 -20 -6 -3 -7 -17 -4 -31 5 -18 2 -24 -9 -24 -21 0 -34 65 -17 85 13 16 40 9 40 -10z m-10 -189 c0 -65 -10 -99 -25 -84 -7 7 -7 91 0 126 12 56 25 35 25 -42z m-2040 -77 c0 -16 -4 -29 -10 -29 -5 0 -10 16 -10 36 0 21 4 33 10 29 6 -3 10 -19 10 -36z m303 -221 c-3 -54 -10 -95 -14 -92 -11 6 -12 248 -1 258 13 14 20 -67 15 -166z m-253 -145 c0 -25 -3 -44 -6 -40 -10 10 -13 87 -3 87 5 0 9 -21 9 -47z m-14 -208 c-9 -20 -13 -41 -10 -47 3 -5 6 -26 6 -46 0 -51 12 -63 59 -56 l39 7 -11 -33 c-13 -36 -33 -48 -54 -30 -12 10 -18 10 -31 -1 -21 -18 -33 2 -35 61 -6 165 -6 160 13 160 13 0 18 8 18 28 0 37 14 52 18 19 2 -14 -4 -42 -12 -62z m3284 -90 c0 -11 -11 -15 -40 -15 -38 0 -49 8 -33 23 3 4 21 7 40 7 23 0 33 -5 33 -15z m-10 -54 c0 -5 -17 -27 -39 -51 -47 -51 -84 -54 -89 -5 -2 17 -8 35 -14 42 -6 8 -1 13 19 16 53 8 123 7 123 -2z m-2988 -43 c-9 -9 -15 -9 -24 0 -9 9 -7 12 12 12 19 0 21 -3 12 -12z m-123 -42 c-6 -6 -13 -6 -21 2 -8 8 -8 15 2 28 13 15 15 14 21 -3 4 -10 3 -22 -2 -27z m2853 19 c4 -20 1 -25 -15 -25 -16 0 -17 3 -7 15 6 8 9 19 5 25 -3 5 -2 10 3 10 5 0 12 -11 14 -25z m-212 -6 c0 -11 -4 -17 -10 -14 -5 3 -10 13 -10 21 0 8 5 14 10 14 6 0 10 -9 10 -21z m303 6 c1 -5 -6 -11 -15 -13 -11 -2 -18 3 -18 13 0 17 30 18 33 0z m-2723 -25 c0 -5 -7 -10 -15 -10 -8 0 -15 5 -15 10 0 6 7 10 15 10 8 0 15 -4 15 -10z m-658 -248 c-27 -4 -37 2 -27 17 4 8 13 7 28 -1 l22 -13 -23 -3z m3487 -459 c-3 -34 1 -43 19 -43 10 0 23 5 30 12 9 9 12 -3 12 -55 0 -37 -3 -67 -7 -67 -14 0 -29 15 -36 33 -3 9 -15 17 -25 17 -14 0 -21 9 -26 32 -6 32 -32 68 -48 68 -5 0 -16 -7 -24 -15 -21 -21 -56 -20 -52 2 2 12 16 17 52 19 27 2 51 6 54 9 3 3 16 5 29 5 17 0 24 -5 22 -17z m-3194 -2 c3 -5 30 -7 60 -4 68 7 73 -9 9 -27 -40 -12 -49 -19 -62 -52 -8 -21 -19 -38 -23 -38 -14 0 -20 39 -11 72 5 18 7 39 5 46 -5 14 13 17 22 3z m-50 -330 c-3 -2 -7 -2 -10 0 -9 10 -17 218 -9 245 6 21 10 -8 15 -106 5 -74 6 -136 4 -139z m3302 37 c-2 -13 -4 -5 -4 17 -1 22 1 32 4 23 2 -10 2 -28 0 -40z m2 -120 c-1 -47 -2 -50 -10 -23 -7 26 -3 75 7 75 2 0 4 -24 3 -52z m-849 2 c0 -5 -7 -10 -15 -10 -8 0 -15 5 -15 10 0 6 7 10 15 10 8 0 15 -4 15 -10z m-2425 -190 c11 -17 -5 -32 -21 -19 -7 6 -11 15 -8 20 7 12 21 11 29 -1z m-5 -181 c0 -10 -7 -19 -15 -19 -15 0 -21 31 -9 43 11 10 24 -3 24 -24z m1003 -102 l-7 -42 -7 38 c-3 21 -4 50 -1 65 5 26 5 26 14 3 4 -12 5 -41 1 -64z m315 -129 c-2 -13 -7 -23 -13 -23 -5 0 -11 10 -13 23 -2 15 2 22 13 22 11 0 15 -7 13 -22z m-29 -77 c20 -19 31 -39 31 -56 0 -34 -29 -83 -53 -91 -10 -3 -16 -12 -13 -20 3 -9 -6 -15 -29 -20 -36 -6 -87 6 -92 22 -3 13 86 66 99 58 5 -4 21 -1 34 7 33 17 32 61 -1 83 -24 16 -35 46 -16 46 5 0 23 -13 40 -29z m-38 -74 c-13 -13 -26 -3 -16 12 3 6 11 8 17 5 6 -4 6 -10 -1 -17z m793 8 c3 -8 11 -15 19 -15 21 0 54 -42 62 -78 7 -33 6 -33 -27 -30 -31 3 -33 5 -30 36 2 27 -1 33 -15 30 -13 -2 -17 -11 -15 -31 2 -15 -1 -27 -7 -27 -6 0 -11 13 -11 28 0 15 -5 33 -11 39 -15 15 -3 63 15 63 8 0 16 -7 20 -15z m606 -65 c0 -5 -15 -10 -32 -10 -25 0 -29 3 -18 10 20 13 50 13 50 0z m-459 -53 c-15 -15 -30 1 -24 24 6 21 7 21 20 4 8 -12 9 -23 4 -28z m402 19 c7 -18 -1 -26 -29 -26 -25 0 -39 14 -29 30 9 15 52 12 58 -4z m-1563 -8 c8 -1 -30 -4 -85 -8 -105 -8 -317 -1 -311 9 3 5 348 4 396 -1z m1435 3 c29 -11 -39 -21 -152 -21 -85 0 -104 5 -86 23 9 9 213 7 238 -2z m279 3 c28 -11 17 -24 -19 -24 -33 0 -43 8 -28 23 8 9 27 9 47 1z"/> <path d="M2230 4630 c-12 -7 -12 -13 -4 -27 15 -24 58 -24 62 1 6 30 -28 45 -58 26z"/> <path d="M2450 4555 c0 -8 -7 -15 -15 -15 -8 0 -15 -7 -15 -15 0 -23 16 -18 34 10 19 28 20 35 6 35 -5 0 -10 -7 -10 -15z"/> <path d="M830 4535 c0 -10 7 -15 18 -13 21 4 19 22 -2 26 -10 2 -16 -3 -16 -13z"/> <path d="M2040 4495 c0 -8 5 -15 10 -15 6 0 10 7 10 15 0 8 -4 15 -10 15 -5 0 -10 -7 -10 -15z"/> <path d="M682 4488 c-14 -14 -16 -28 -2 -28 5 0 14 9 20 20 12 22 1 27 -18 8z"/> <path d="M1965 4479 c-10 -15 1 -23 20 -15 9 3 13 10 10 16 -8 13 -22 13 -30 -1z"/> <path d="M774 4345 c-8 -21 2 -45 19 -45 20 0 40 27 33 45 -7 19 -45 20 -52 0z"/> <path d="M3736 4344 c-6 -16 9 -44 23 -44 19 0 42 27 35 43 -8 22 -50 22 -58 1z"/> <path d="M740 4165 c7 -8 16 -15 21 -15 5 0 9 7 9 15 0 9 -9 15 -21 15 -18 0 -19 -2 -9 -15z"/> <path d="M3745 4149 c-4 -6 -4 -13 -1 -16 8 -8 36 5 36 17 0 13 -27 13 -35 -1z"/> <path d="M3656 4104 c-7 -18 0 -34 15 -34 12 0 12 37 0 44 -5 3 -12 -1 -15 -10z"/> <path d="M1134 4035 c-8 -31 6 -48 32 -43 29 5 26 62 -3 66 -17 3 -24 -3 -29 -23z"/> <path d="M3431 4041 c-22 -41 20 -71 50 -35 9 11 10 20 2 32 -15 25 -40 26 -52 3z"/> <path d="M450 4015 c0 -31 26 -43 47 -22 21 21 9 47 -22 47 -20 0 -25 -5 -25 -25z"/> <path d="M4020 4015 c0 -35 27 -43 53 -16 19 19 20 23 7 31 -8 5 -25 10 -37 10 -18 0 -23 -6 -23 -25z"/> <path d="M3620 3984 c0 -31 23 -28 28 4 2 15 -2 22 -12 22 -11 0 -16 -9 -16 -26z"/> <path d="M3081 3881 c-10 -7 -10 -10 -1 -16 6 -4 16 -3 22 3 13 13 -4 23 -21 13z"/> <path d="M3830 3855 c0 -8 7 -15 15 -15 8 0 15 7 15 15 0 8 -7 15 -15 15 -8 0 -15 -7 -15 -15z"/> <path d="M3616 3851 c-3 -5 1 -11 9 -15 15 -6 29 7 18 18 -9 9 -21 8 -27 -3z"/> <path d="M3466 3821 c-3 -5 1 -11 9 -15 9 -3 15 0 15 9 0 16 -16 20 -24 6z"/> <path d="M3722 3728 c-7 -7 -12 -18 -12 -25 0 -15 37 -36 50 -28 16 10 12 52 -6 59 -20 8 -18 8 -32 -6z"/> <path d="M754 3715 c-7 -17 12 -45 31 -45 19 0 36 25 29 44 -8 20 -53 21 -60 1z"/> <path d="M2964 3556 c-4 -10 -2 -22 4 -28 8 -8 13 -7 18 6 4 10 2 22 -4 28 -8 8 -13 7 -18 -6z"/> <path d="M2120 3480 c-8 -5 -29 -10 -46 -10 -27 0 -65 -11 -182 -55 -18 -6 -38 -17 -44 -23 -7 -7 -20 -12 -29 -12 -36 0 -319 -235 -319 -266 0 -4 -7 -16 -17 -26 -19 -21 -29 -39 -77 -132 -20 -37 -36 -76 -36 -85 0 -9 -4 -21 -9 -26 -9 -9 -16 -33 -42 -143 -6 -24 -9 -111 -7 -200 4 -137 8 -168 32 -242 15 -47 34 -98 43 -115 8 -16 25 -48 36 -70 37 -73 81 -129 167 -215 88 -88 151 -135 255 -186 55 -28 83 -37 215 -76 61 -18 339 -18 400 0 129 38 158 47 190 64 19 10 39 18 44 18 29 0 284 201 295 233 2 7 20 31 40 53 20 23 54 77 75 120 21 44 45 91 52 106 8 14 14 35 14 45 0 10 4 23 9 29 14 15 41 199 41 279 0 165 -67 376 -166 523 -51 76 -181 204 -265 262 -85 58 -204 110 -304 133 -101 23 -340 34 -365 17z m125 -60 c4 -6 -7 -10 -24 -10 -17 0 -31 5 -31 10 0 6 11 10 24 10 14 0 28 -4 31 -10z m115 -10 c0 -13 10 -24 25 -30 14 -5 25 -14 25 -20 0 -11 33 -14 43 -3 4 3 2 12 -5 20 -8 10 -8 17 0 25 16 16 34 -1 28 -27 -7 -27 10 -43 27 -26 17 17 45 13 57 -9 14 -26 36 -25 43 2 l6 22 24 -22 c13 -12 28 -22 34 -22 5 0 18 -9 28 -20 10 -11 28 -20 41 -20 34 0 38 -16 9 -38 -32 -25 -32 -32 1 -32 17 0 28 6 31 20 9 32 23 23 23 -15 0 -25 5 -38 18 -42 9 -4 22 -14 29 -22 6 -9 15 -12 20 -8 4 5 -1 15 -11 23 -14 10 -17 17 -9 25 7 7 20 2 42 -18 22 -21 28 -32 20 -40 -13 -13 16 -63 37 -63 8 0 17 -14 21 -30 3 -17 10 -33 14 -36 5 -3 9 -14 9 -25 0 -10 7 -19 15 -19 8 0 15 7 15 15 0 18 16 20 26 4 4 -7 -1 -16 -10 -21 -16 -9 -22 -58 -9 -71 3 -4 12 -2 19 4 23 19 34 -1 34 -60 0 -44 5 -62 19 -75 10 -9 17 -25 14 -34 -2 -10 0 -37 6 -62 7 -30 7 -48 -1 -57 -15 -18 -1 -50 14 -35 19 19 30 14 26 -10 -2 -13 -10 -23 -18 -23 -21 0 -23 -9 -16 -70 3 -30 2 -63 -3 -72 -12 -25 -31 -98 -42 -167 -10 -67 -17 -80 -26 -48 -9 38 -33 18 -33 -28 0 -10 -7 -20 -15 -24 -8 -3 -15 -12 -15 -19 0 -8 -10 -26 -21 -41 -16 -20 -19 -30 -11 -38 15 -15 -3 -48 -27 -48 -10 0 -23 -12 -30 -26 -10 -23 -16 -26 -46 -21 -26 4 -35 2 -35 -8 0 -7 5 -15 12 -17 17 -6 2 -49 -30 -86 -30 -34 -62 -42 -62 -17 0 16 -12 20 -23 8 -4 -3 -2 -13 5 -20 14 -18 -4 -33 -40 -33 -16 0 -26 -7 -29 -21 -6 -20 -21 -21 -84 -3 -9 2 -22 -2 -28 -10 -10 -12 -8 -16 8 -21 12 -3 21 -11 21 -16 0 -12 -27 -12 -35 1 -11 17 -44 11 -55 -10 -14 -27 -44 -25 -63 2 l-16 23 -7 -22 c-5 -18 -11 -22 -29 -17 -14 3 -34 -1 -49 -11 -19 -12 -36 -15 -66 -10 -22 4 -42 11 -46 16 -3 5 -18 9 -34 9 -19 0 -35 9 -48 25 -24 31 -67 35 -57 6 6 -20 -13 -40 -24 -25 -6 9 -86 46 -124 58 -9 3 -22 17 -27 32 -10 25 -14 26 -54 21 -37 -5 -46 -3 -64 18 -15 17 -32 25 -53 25 -30 0 -31 1 -16 18 9 9 13 22 9 27 -11 16 -50 35 -72 35 -15 0 -20 7 -20 26 0 17 -6 28 -19 31 -12 3 -23 17 -26 34 -4 16 -13 29 -21 29 -21 0 -28 25 -14 50 13 25 5 39 -12 22 -18 -18 -38 -14 -38 8 0 14 -7 20 -21 20 -16 0 -20 5 -16 19 2 11 -4 33 -14 50 -10 17 -16 37 -13 44 3 8 -2 19 -10 26 -12 10 -13 18 -5 34 10 17 7 23 -12 39 l-24 18 25 -3 c23 -2 24 1 26 46 1 43 -1 47 -22 47 -31 0 -39 17 -14 30 17 9 18 14 9 31 -8 16 -7 26 7 46 15 24 15 27 0 38 -19 14 -21 32 -3 37 6 3 13 16 14 29 1 13 4 42 8 64 3 22 7 56 9 75 2 19 15 57 30 84 15 28 26 65 26 87 0 47 17 59 31 22 10 -26 11 -27 21 -9 8 14 8 24 -1 37 -15 26 -14 31 7 25 25 -8 43 7 40 34 -2 17 3 25 17 28 31 6 55 32 55 59 0 29 17 63 30 63 6 0 10 -9 10 -20 0 -11 7 -20 15 -20 8 0 24 9 35 20 11 11 26 20 34 20 8 0 17 11 20 25 6 24 37 43 101 62 19 6 31 17 33 31 3 23 26 30 37 12 9 -15 41 -12 55 5 9 11 16 13 24 5 14 -14 26 -13 26 4 0 27 63 30 116 4 25 -12 64 4 64 27 0 19 26 19 33 1 3 -8 -1 -20 -9 -27 -12 -9 -12 -14 -2 -20 17 -11 28 -2 44 37 16 38 34 45 34 14z m-600 -160 c0 -15 -7 -20 -25 -20 -40 0 -25 27 23 39 1 1 2 -8 2 -19z m1250 -220 c0 -11 -7 -20 -15 -20 -15 0 -21 21 -8 33 12 13 23 7 23 -13z m-1605 -310 c-5 -8 -11 -8 -17 -2 -6 6 -7 16 -3 22 5 8 11 8 17 2 6 -6 7 -16 3 -22z m1725 -446 c0 -16 -16 -19 -25 -4 -8 13 4 32 16 25 5 -4 9 -13 9 -21z m-119 -237 c-13 -13 -26 -3 -16 12 3 6 11 8 17 5 6 -4 6 -10 -1 -17z"/> <path d="M2504 3279 c-10 -17 13 -36 27 -22 12 12 4 33 -11 33 -5 0 -12 -5 -16 -11z"/> <path d="M2627 3270 c-4 -15 0 -20 13 -20 11 0 22 -5 25 -10 4 -6 11 -8 16 -4 9 5 -29 53 -42 54 -4 0 -9 -9 -12 -20z"/> <path d="M2115 3250 c-8 -12 20 -24 35 -15 6 3 8 11 5 16 -8 12 -32 12 -40 -1z"/> <path d="M2330 3240 c-8 -5 -41 -10 -73 -10 -32 0 -68 -6 -80 -14 -39 -25 -85 -29 -113 -12 -22 15 -25 15 -30 1 -4 -9 1 -21 12 -29 16 -12 15 -15 -22 -38 -61 -38 -81 -48 -88 -41 -3 3 -6 -4 -6 -16 0 -16 -10 -26 -34 -36 -26 -11 -36 -23 -41 -47 -4 -18 -16 -49 -27 -70 -20 -38 -20 -40 -3 -84 14 -37 15 -50 5 -68 -13 -26 -10 -88 6 -93 5 -2 15 9 22 24 10 26 11 24 6 -17 -3 -25 -7 -52 -9 -60 -2 -8 9 -31 26 -50 25 -30 32 -33 49 -23 22 15 39 -2 21 -20 -17 -17 -14 -77 4 -77 9 0 15 9 15 25 0 24 14 34 24 16 3 -4 -3 -32 -14 -61 l-19 -53 24 -19 c31 -24 32 -38 2 -38 -33 0 -36 -6 -25 -52 10 -47 -5 -77 -23 -45 -6 9 -14 17 -19 17 -13 0 -13 -37 0 -45 6 -3 10 -22 10 -41 0 -19 -4 -34 -10 -34 -5 0 -10 5 -10 10 0 13 -27 13 -35 0 -3 -5 1 -23 10 -40 9 -17 15 -46 13 -63 -3 -28 -6 -32 -30 -29 -22 2 -28 -1 -28 -18 0 -11 4 -20 10 -20 19 0 32 -40 19 -56 -10 -13 -10 -17 2 -25 8 -5 22 -9 31 -9 9 0 20 -5 23 -11 12 -19 56 -30 164 -40 152 -14 282 -11 302 7 14 13 18 13 29 -1 10 -12 9 -16 -6 -22 -15 -6 -10 -9 20 -14 21 -3 48 -4 59 -1 17 4 16 6 -9 17 l-29 12 27 13 c20 10 34 10 50 3 18 -8 32 -6 61 8 20 11 37 26 37 33 0 7 7 19 15 26 11 9 12 16 5 25 -6 7 -10 39 -9 71 2 72 -9 125 -28 139 -8 6 -15 32 -17 60 -1 27 -8 51 -14 53 -7 2 -12 12 -12 23 0 11 -7 22 -15 25 -8 3 -21 20 -30 37 -14 28 -14 32 2 49 15 17 15 19 -2 32 -13 9 -15 15 -6 20 6 4 14 0 17 -8 7 -19 58 -22 52 -3 -3 6 -14 13 -26 15 -30 5 -28 26 3 40 34 16 42 40 19 58 -17 13 -16 14 19 8 35 -6 51 6 27 21 -15 9 -12 41 5 55 8 7 15 20 15 29 0 30 21 43 42 24 17 -15 18 -15 18 5 0 11 -4 24 -10 27 -16 10 -12 81 5 95 20 17 19 47 -2 59 -15 8 -16 13 -5 30 12 21 17 61 6 61 -16 0 -44 -23 -44 -35 0 -8 -4 -15 -10 -15 -5 0 -10 9 -10 19 0 11 5 23 10 26 19 12 11 52 -11 58 -17 5 -20 11 -16 29 5 18 -2 34 -25 62 -26 32 -35 37 -60 32 -26 -5 -28 -3 -28 24 0 36 -15 46 -45 30 -18 -10 -29 -8 -64 9 -22 12 -41 28 -41 36 0 17 -9 19 -30 5z m112 -140 c111 -73 158 -160 158 -294 0 -67 -4 -87 -31 -141 -38 -78 -120 -155 -164 -155 -19 0 -20 -43 -1 -59 8 -6 16 -24 19 -39 6 -33 25 -88 43 -124 8 -14 14 -37 14 -50 0 -13 6 -32 14 -43 7 -11 16 -31 19 -45 7 -31 33 -105 52 -147 8 -17 15 -35 15 -41 0 -5 7 -15 15 -22 9 -7 14 -17 12 -23 -3 -10 -669 -13 -685 -3 -5 3 4 34 21 68 17 35 34 72 39 83 15 38 39 110 48 140 14 52 56 167 76 210 32 70 30 82 -18 105 -80 41 -139 123 -165 229 -16 66 -16 73 2 133 23 79 86 178 130 205 90 57 117 63 232 58 89 -3 95 -5 155 -45z m128 -6 c0 -17 -22 -14 -28 4 -2 7 3 12 12 12 9 0 16 -7 16 -16z m-674 -131 c-11 -11 -19 6 -11 24 8 17 8 17 12 0 3 -10 2 -21 -1 -24z m-23 -52 c6 -25 -9 -49 -22 -36 -11 11 -4 55 9 55 4 0 10 -9 13 -19z m149 -476 c0 -5 -5 -11 -11 -13 -6 -2 -11 4 -11 13 0 9 5 15 11 13 6 -2 11 -8 11 -13z"/> <path d="M1885 3130 c-3 -6 1 -13 10 -16 19 -8 30 0 20 15 -8 14 -22 14 -30 1z"/> <path d="M2640 3125 c0 -8 5 -15 10 -15 6 0 10 7 10 15 0 8 -4 15 -10 15 -5 0 -10 -7 -10 -15z"/> <path d="M2880 3065 c0 -8 5 -15 10 -15 6 0 10 7 10 15 0 8 -4 15 -10 15 -5 0 -10 -7 -10 -15z"/> <path d="M1830 2534 c0 -14 4 -23 10 -19 6 3 10 15 10 26 0 10 -4 19 -10 19 -5 0 -10 -12 -10 -26z"/> <path d="M2791 1894 c-1 -7 -10 -14 -21 -17 -22 -6 -28 -47 -7 -47 17 0 41 44 34 62 -3 7 -6 8 -6 2z"/> <path d="M1820 1830 c20 -13 57 -13 65 0 4 6 -11 10 -37 10 -31 0 -39 -3 -28 -10z"/> <path d="M2565 1811 c-2 -4 9 -12 26 -18 23 -9 29 -8 29 2 0 13 -47 27 -55 16z"/> <path d="M2425 1750 c-18 -7 -18 -8 7 -15 28 -7 48 -1 48 16 0 11 -27 11 -55 -1z"/> <path d="M2247 1703 c-15 -14 -6 -23 23 -23 32 0 40 14 14 24 -20 8 -29 8 -37 -1z"/> <path d="M3082 3368 c6 -18 28 -21 28 -4 0 9 -7 16 -16 16 -9 0 -14 -5 -12 -12z"/> <path d="M3300 3215 c0 -10 7 -15 18 -13 21 4 19 22 -2 26 -10 2 -16 -3 -16 -13z"/> <path d="M174 2526 c-10 -26 4 -48 28 -44 17 2 23 10 23 28 0 18 -6 26 -23 28 -13 2 -25 -3 -28 -12z"/> <path d="M4304 2525 c-10 -25 4 -45 30 -45 26 0 36 14 28 43 -5 21 -50 23 -58 2z"/> <path d="M2993 1615 c-8 -22 6 -33 17 -15 13 20 12 30 0 30 -6 0 -13 -7 -17 -15z"/> <path d="M3590 1611 c0 -12 6 -21 16 -21 9 0 14 7 12 17 -5 25 -28 28 -28 4z"/> <path d="M920 1595 c0 -8 7 -15 15 -15 8 0 15 7 15 15 0 8 -7 15 -15 15 -8 0 -15 -7 -15 -15z"/> <path d="M1561 1546 c-11 -13 -11 -20 -3 -28 8 -8 13 -7 18 5 10 27 0 41 -15 23z"/> <path d="M1606 1481 c-3 -5 1 -15 10 -22 13 -10 17 -10 25 2 5 8 9 17 9 22 0 10 -38 9 -44 -2z"/> <path d="M760 1425 c-11 -13 -11 -19 4 -33 20 -20 51 -6 51 24 0 24 -37 30 -55 9z"/> <path d="M3715 1430 c-12 -20 6 -51 28 -48 31 4 31 52 0 56 -11 2 -24 -2 -28 -8z"/> <path d="M3560 1125 c0 -8 5 -15 10 -15 6 0 10 7 10 15 0 8 -4 15 -10 15 -5 0 -10 -7 -10 -15z"/> <path d="M1087 1083 c-13 -13 -7 -51 9 -57 20 -8 44 11 44 34 0 23 -37 39 -53 23z"/> <path d="M3382 1078 c-16 -16 -15 -23 4 -42 20 -21 31 -20 44 3 20 39 -18 69 -48 39z"/> <path d="M3597 1084 c-11 -11 -8 -44 3 -44 15 0 24 30 13 41 -5 5 -12 6 -16 3z"/> <path d="M454 1065 c-9 -23 3 -45 25 -45 20 0 37 32 26 50 -9 15 -45 12 -51 -5z"/> <path d="M4024 1065 c-9 -23 3 -45 25 -45 26 0 45 32 29 48 -17 17 -48 15 -54 -3z"/> <path d="M3898 948 c-7 -18 2 -39 13 -32 12 7 12 44 0 44 -5 0 -11 -6 -13 -12z"/> <path d="M715 909 c-10 -15 3 -25 16 -12 7 7 7 13 1 17 -6 3 -14 1 -17 -5z"/> <path d="M3926 882 c-8 -13 11 -35 23 -28 6 4 11 11 11 16 0 11 -28 21 -34 12z"/> <path d="M774 766 c-10 -26 4 -48 28 -44 17 2 23 10 23 28 0 18 -6 26 -23 28 -13 2 -25 -3 -28 -12z"/> <path d="M3743 769 c-17 -17 -3 -49 22 -49 27 0 40 26 24 46 -14 17 -31 18 -46 3z"/> <path d="M3910 700 c0 -5 7 -10 15 -10 8 0 15 5 15 10 0 6 -7 10 -15 10 -8 0 -15 -4 -15 -10z"/> <path d="M594 609 c-3 -6 -1 -16 5 -22 8 -8 11 -5 11 11 0 24 -5 28 -16 11z"/> <path d="M670 605 c0 -8 7 -15 15 -15 8 0 15 7 15 15 0 8 -7 15 -15 15 -8 0 -15 -7 -15 -15z"/> <path d="M1905 610 c-3 -5 3 -10 15 -10 12 0 18 5 15 10 -3 6 -10 10 -15 10 -5 0 -12 -4 -15 -10z"/> <path d="M922 598 c6 -18 25 -20 31 -3 5 10 0 15 -14 15 -12 0 -19 -5 -17 -12z"/> <path d="M1098 603 c18 -2 45 -2 60 0 15 2 0 4 -33 4 -33 0 -45 -2 -27 -4z"/> <path d="M781 543 c-1 -18 4 -33 9 -33 12 0 12 17 0 45 -7 17 -9 15 -9 -12z"/> <path d="M2280 471 c0 -23 5 -31 18 -31 49 1 58 53 9 58 -24 3 -27 0 -27 -27z"/> </g> </svg> 