 <svg  version="1.0" xmlns="http://www.w3.org/2000/svg"  width="1350.000000pt" height="1350.000000pt" viewBox="0 0 1350.000000 1350.000000"  preserveAspectRatio="xMidYMid meet">  <g transform="translate(0.000000,1350.000000) scale(0.100000,-0.100000)" fill="#1b8bbb" stroke="none"> <path d="M6685 8980 c-3 -5 -20 -14 -38 -19 -18 -5 -57 -19 -87 -31 -30 -12 -66 -25 -80 -30 -14 -5 -50 -18 -80 -30 -30 -12 -66 -25 -80 -30 -14 -5 -50 -18 -80 -30 -30 -12 -66 -25 -80 -30 -14 -5 -50 -18 -80 -30 -30 -12 -66 -25 -80 -30 -14 -5 -50 -18 -80 -30 -30 -12 -64 -24 -75 -27 -11 -3 -33 -11 -50 -18 -88 -38 -107 -45 -123 -45 -9 0 -26 -7 -36 -15 -11 -8 -28 -15 -37 -15 -10 0 -30 -6 -46 -14 -15 -8 -48 -22 -73 -31 -25 -9 -60 -23 -78 -31 -18 -8 -40 -14 -50 -14 -9 0 -26 -7 -36 -15 -11 -8 -29 -15 -40 -15 -12 0 -30 -7 -40 -15 -11 -8 -29 -15 -40 -15 -12 0 -30 -7 -40 -15 -11 -8 -28 -15 -37 -15 -10 0 -30 -6 -46 -14 -54 -27 -104 -46 -121 -46 -9 0 -26 -7 -36 -15 -11 -8 -29 -15 -40 -15 -12 0 -30 -7 -40 -15 -11 -8 -29 -15 -40 -15 -12 0 -30 -7 -40 -15 -11 -8 -29 -15 -40 -15 -12 0 -30 -7 -40 -15 -11 -8 -29 -15 -40 -15 -12 0 -30 -7 -40 -15 -11 -8 -28 -15 -38 -15 -17 0 -65 -18 -121 -46 -16 -8 -36 -14 -45 -14 -9 0 -26 -7 -36 -15 -11 -8 -29 -15 -40 -15 -12 0 -30 -7 -40 -15 -11 -8 -29 -15 -40 -15 -12 0 -30 -7 -40 -15 -11 -8 -29 -15 -41 -15 -12 0 -30 -7 -41 -15 -10 -8 -28 -15 -40 -15 -11 0 -29 -7 -40 -15 -10 -8 -28 -15 -40 -15 -11 0 -29 -7 -40 -15 -10 -8 -27 -15 -37 -15 -27 0 -94 -37 -101 -56 -7 -18 10 -76 31 -109 7 -11 13 -29 13 -42 0 -12 4 -24 10 -28 5 -3 14 -20 19 -38 5 -18 19 -57 31 -87 12 -30 31 -83 42 -117 31 -91 40 -91 209 -14 25 12 54 21 63 21 15 0 16 -121 16 -1564 0 -1424 1 -1565 16 -1577 13 -11 295 -14 1581 -17 1366 -2 1568 -1 1588 12 28 19 36 48 21 78 l-12 23 -1547 5 -1547 5 0 1530 c0 842 0 1533 0 1537 0 9 88 48 109 48 10 0 26 7 37 15 10 8 26 15 35 15 8 0 42 13 74 30 32 16 60 28 62 26 3 -2 4 -669 3 -1483 0 -1189 2 -1482 12 -1496 12 -16 91 -17 1461 -17 l1447 0 0 -51 c0 -144 89 -259 215 -278 l40 -6 0 -95 c0 -85 3 -98 25 -128 49 -66 72 -72 258 -72 166 1 167 1 207 28 54 38 87 96 80 143 -3 23 0 40 8 45 6 5 176 7 377 4 l365 -5 1 -56 c2 -66 21 -101 76 -135 36 -23 45 -24 205 -24 167 1 168 1 208 28 22 15 50 46 63 67 19 34 22 52 20 120 l-3 79 35 7 c83 15 150 66 190 144 18 35 20 59 20 245 l0 205 31 14 c58 26 98 75 134 165 23 58 23 1831 0 1897 -26 75 -47 107 -94 141 -79 58 -85 59 -491 58 -204 -1 -374 1 -377 4 -3 3 -6 68 -6 143 -1 157 0 160 75 125 123 -58 140 -64 163 -58 24 6 55 51 55 80 0 15 19 66 46 119 8 16 14 35 14 42 0 14 20 66 46 118 8 16 14 35 14 43 0 8 7 26 16 39 9 14 13 32 9 45 -7 22 -72 60 -103 60 -10 0 -27 7 -38 15 -10 8 -28 15 -40 15 -11 0 -29 7 -40 15 -10 8 -28 15 -40 15 -11 0 -29 7 -40 15 -10 8 -28 15 -40 15 -11 0 -29 7 -40 15 -10 8 -28 15 -40 15 -11 0 -29 7 -40 15 -10 8 -28 15 -40 15 -11 0 -29 7 -40 15 -10 8 -28 15 -40 15 -11 0 -29 7 -40 15 -10 8 -27 15 -36 15 -10 0 -32 6 -50 14 -18 8 -53 22 -78 31 -25 9 -58 23 -73 31 -16 8 -36 14 -46 14 -9 0 -26 7 -37 15 -10 8 -28 15 -40 15 -11 0 -29 7 -40 15 -10 8 -27 15 -36 15 -10 0 -32 6 -50 14 -33 14 -89 36 -163 63 -22 8 -53 21 -70 28 -16 7 -39 15 -50 18 -11 3 -45 15 -75 27 -30 12 -66 25 -80 30 -14 5 -50 18 -80 30 -30 12 -66 25 -80 30 -14 5 -50 18 -80 30 -30 12 -66 25 -80 30 -14 5 -50 18 -80 30 -30 12 -66 25 -80 30 -32 11 -90 33 -160 61 -30 11 -66 23 -80 26 -14 3 -34 12 -45 19 -11 8 -29 14 -42 14 -12 0 -24 4 -28 10 -3 5 -20 14 -38 19 -32 10 -68 23 -167 61 -30 12 -64 24 -75 27 -11 3 -33 11 -50 18 -16 7 -50 21 -75 30 -25 9 -58 23 -73 31 -33 16 -63 18 -72 4z m82 -126 c21 -9 52 -22 68 -29 17 -7 47 -20 68 -29 21 -9 45 -16 55 -16 9 0 26 -7 36 -15 11 -8 28 -15 37 -15 10 0 30 -6 46 -14 54 -27 104 -46 121 -46 9 0 26 -7 36 -15 11 -8 29 -15 41 -15 12 0 30 -7 41 -15 10 -8 28 -15 40 -15 11 0 29 -7 40 -15 10 -8 28 -15 39 -15 11 0 29 -7 39 -15 11 -8 29 -15 40 -15 12 0 30 -7 40 -15 11 -8 29 -15 41 -15 12 0 30 -7 41 -15 10 -8 28 -15 40 -15 11 0 29 -7 40 -15 10 -8 28 -15 39 -15 11 0 29 -7 39 -15 11 -8 29 -15 41 -15 12 0 30 -7 41 -15 10 -8 28 -15 39 -15 11 0 29 -7 39 -15 11 -8 29 -15 40 -15 12 0 30 -7 40 -15 11 -8 29 -15 41 -15 12 0 30 -7 41 -15 10 -8 27 -15 36 -15 17 0 67 -19 121 -46 16 -8 36 -14 46 -14 9 0 26 -7 37 -15 10 -8 28 -15 40 -15 11 0 29 -7 40 -15 10 -8 28 -15 40 -15 11 0 29 -7 40 -15 10 -8 27 -15 36 -15 10 0 32 -6 50 -14 33 -14 89 -36 163 -63 22 -8 54 -21 70 -28 17 -7 39 -15 50 -18 11 -3 45 -15 75 -27 30 -12 66 -25 80 -30 14 -5 50 -18 80 -30 30 -12 66 -25 80 -30 14 -5 50 -18 80 -30 30 -12 64 -24 75 -27 11 -3 34 -11 50 -18 17 -7 39 -15 50 -17 25 -5 25 -53 1 -104 -32 -67 -44 -100 -63 -161 -20 -69 -29 -74 -82 -48 -17 8 -45 22 -62 30 -17 8 -38 15 -47 15 -9 0 -26 7 -36 15 -11 8 -29 15 -41 15 -12 0 -30 7 -41 15 -10 8 -28 15 -40 15 -11 0 -29 7 -40 15 -10 8 -28 15 -40 15 -11 0 -29 7 -40 15 -10 8 -28 15 -40 15 -11 0 -29 7 -40 15 -10 8 -28 15 -40 15 -11 0 -29 7 -40 15 -10 8 -27 15 -36 15 -17 0 -67 19 -121 46 -16 8 -36 14 -46 14 -9 0 -26 7 -37 15 -10 8 -28 15 -40 15 -11 0 -29 7 -40 15 -10 8 -28 15 -40 15 -11 0 -29 7 -40 15 -10 8 -28 15 -40 15 -11 0 -29 7 -40 15 -10 8 -27 15 -36 15 -16 0 -35 7 -123 45 -16 7 -39 15 -50 18 -11 3 -45 15 -75 27 -30 12 -69 26 -87 31 -18 5 -35 14 -38 19 -4 6 -16 10 -29 10 -12 0 -31 7 -42 15 -10 8 -27 15 -36 15 -10 0 -32 6 -50 14 -35 15 -49 20 -240 92 -24 9 -56 22 -73 29 -16 7 -39 15 -50 18 -11 3 -45 15 -75 27 -30 12 -66 25 -80 30 -30 11 -86 32 -160 60 -30 12 -64 24 -75 27 -11 3 -33 11 -50 18 -16 7 -50 21 -75 30 -25 9 -58 23 -73 31 -37 18 -78 18 -103 -1 -10 -8 -28 -15 -39 -15 -11 0 -29 -7 -39 -15 -11 -8 -29 -15 -40 -15 -12 0 -30 -7 -40 -15 -11 -8 -28 -15 -37 -15 -10 0 -30 -6 -46 -14 -26 -13 -51 -23 -158 -63 -22 -8 -55 -21 -73 -29 -18 -8 -40 -14 -50 -14 -9 0 -26 -7 -36 -15 -11 -8 -29 -15 -40 -15 -12 0 -30 -7 -40 -15 -11 -8 -28 -15 -37 -15 -10 0 -30 -6 -46 -14 -54 -27 -104 -46 -121 -46 -9 0 -26 -7 -36 -15 -11 -8 -29 -15 -41 -15 -12 0 -30 -7 -41 -15 -10 -8 -28 -15 -39 -15 -11 0 -29 -7 -39 -15 -11 -8 -29 -15 -40 -15 -12 0 -30 -7 -40 -15 -11 -8 -29 -15 -40 -15 -12 0 -30 -7 -40 -15 -11 -8 -29 -15 -40 -15 -12 0 -30 -7 -40 -15 -11 -8 -29 -15 -41 -15 -12 0 -30 -7 -41 -15 -10 -8 -27 -15 -36 -15 -17 0 -67 -19 -121 -46 -16 -8 -36 -14 -46 -14 -9 0 -26 -7 -37 -15 -10 -8 -28 -15 -39 -15 -11 0 -29 -7 -39 -15 -11 -8 -29 -15 -41 -15 -12 0 -30 -7 -41 -15 -10 -8 -28 -15 -40 -15 -11 0 -29 -7 -40 -15 -10 -8 -28 -15 -39 -15 -11 0 -29 -7 -39 -15 -11 -8 -29 -15 -40 -15 -12 0 -30 -7 -40 -15 -11 -8 -29 -15 -41 -15 -12 0 -30 -7 -41 -15 -10 -8 -27 -15 -36 -15 -10 0 -32 -6 -50 -14 -18 -8 -53 -22 -78 -31 -25 -9 -58 -23 -73 -31 -16 -8 -36 -14 -46 -14 -9 0 -26 -7 -37 -15 -10 -8 -27 -15 -37 -15 -11 0 -31 -6 -45 -13 -116 -59 -133 -60 -143 -7 -4 19 -17 60 -29 90 -12 30 -25 68 -30 83 -5 16 -13 34 -19 40 -9 12 -14 40 -12 63 0 7 13 14 29 17 15 2 43 10 62 17 92 33 117 43 145 55 17 7 39 15 50 18 11 3 45 15 75 27 30 12 69 26 87 31 18 5 35 14 38 19 4 6 15 10 25 10 11 0 34 6 52 14 18 8 53 22 78 31 25 9 59 23 75 30 17 7 39 15 50 18 11 3 45 15 75 27 30 12 66 25 80 30 14 5 50 18 80 30 30 12 66 25 80 30 32 11 90 33 160 61 30 11 66 23 80 26 14 3 34 12 45 19 11 8 27 14 36 14 10 0 30 6 46 14 52 26 104 46 118 46 7 0 26 6 42 14 26 13 51 23 158 63 22 8 55 21 73 29 18 8 40 14 50 14 9 0 26 7 36 15 11 8 29 15 40 15 12 0 30 7 40 15 11 8 28 15 37 15 10 0 30 6 46 14 54 27 104 46 121 46 9 0 26 7 36 15 11 8 29 15 40 15 12 0 30 7 40 15 11 8 29 15 40 15 12 0 30 7 40 15 11 8 29 15 40 15 12 0 30 7 40 15 11 8 29 15 40 15 12 0 30 7 40 15 11 8 28 15 37 15 17 0 38 9 104 43 40 20 66 20 112 1z m-1 -479 c10 -8 28 -15 40 -15 11 0 29 -7 40 -15 10 -8 28 -15 40 -15 11 0 29 -7 40 -15 10 -8 28 -15 40 -15 11 0 29 -7 40 -15 10 -8 28 -15 40 -15 11 0 29 -7 40 -15 10 -8 27 -15 36 -15 17 0 67 -19 121 -46 16 -8 36 -14 46 -14 9 0 26 -7 37 -15 10 -8 28 -15 40 -15 11 0 29 -7 40 -15 10 -8 28 -15 40 -15 11 0 29 -7 40 -15 10 -8 28 -15 40 -15 11 0 29 -7 40 -15 10 -8 28 -15 40 -15 11 0 29 -7 40 -15 10 -8 27 -15 36 -15 10 0 32 -6 50 -14 18 -8 51 -21 73 -29 88 -33 131 -49 160 -62 17 -7 39 -15 50 -18 11 -3 45 -15 75 -27 30 -12 66 -25 80 -30 29 -10 82 -30 160 -60 30 -12 66 -25 80 -30 14 -5 50 -18 80 -30 30 -12 70 -26 89 -30 63 -16 62 -13 63 -274 0 -130 -2 -239 -4 -242 -3 -3 -228 -5 -499 -5 -547 1 -548 1 -623 -62 -79 -66 -87 -92 -89 -322 l-2 -200 -323 0 c-312 0 -324 -1 -338 -20 -13 -17 -15 -87 -13 -465 l1 -445 -86 -3 -87 -3 2 452 c1 387 -1 453 -14 466 -13 13 -86 15 -510 15 -272 0 -500 -3 -506 -6 -8 -5 -11 -141 -11 -467 l0 -460 -295 2 c-163 1 -298 -1 -301 -4 -3 -3 -7 -210 -8 -459 l-1 -453 -68 -5 c-38 -3 -71 -2 -73 2 -3 4 -4 665 -4 1469 0 1168 2 1464 12 1471 7 4 24 11 38 13 14 3 38 12 53 20 16 8 36 15 46 15 9 0 26 7 37 15 10 8 28 15 39 15 11 0 29 6 40 14 11 7 31 16 45 19 24 5 38 10 160 57 30 12 66 25 80 30 14 5 50 18 80 30 30 12 66 25 80 30 14 5 50 18 80 30 30 12 66 25 80 30 14 5 50 18 80 30 30 12 66 25 80 30 14 5 50 18 80 30 30 12 64 24 75 27 11 3 34 11 50 18 29 13 77 31 158 61 20 8 56 21 80 30 23 9 59 22 80 30 20 8 56 21 80 30 60 23 116 44 162 61 22 8 51 21 65 28 34 18 92 18 116 0z m2024 -750 c7 -8 20 -15 29 -15 9 0 25 -7 35 -15 11 -8 29 -15 40 -15 12 0 30 -7 40 -15 11 -8 27 -15 37 -15 9 0 30 -7 45 -15 16 -8 37 -15 47 -15 16 0 17 -13 15 -171 l-3 -171 -160 0 -160 0 -3 231 c-2 192 0 231 12 231 7 0 19 -7 26 -15z m1174 -574 c17 -11 41 -33 54 -50 l22 -30 0 -940 0 -939 -46 -46 c-32 -32 -54 -46 -73 -46 -46 0 -50 -24 -53 -272 l-3 -227 -33 -34 c-34 -35 -103 -63 -138 -55 -11 3 -31 -2 -46 -9 l-28 -14 0 -124 c0 -87 -4 -126 -12 -131 -7 -5 -79 -9 -160 -10 -142 -1 -148 -1 -169 22 -19 20 -21 30 -15 82 4 33 2 71 -3 85 l-11 27 -458 0 c-538 0 -494 10 -491 -114 2 -50 -1 -80 -10 -89 -8 -8 -57 -12 -162 -13 l-149 -2 -21 27 c-20 24 -21 34 -15 126 8 129 5 134 -95 145 -71 8 -75 10 -111 51 l-38 44 -2 235 -3 234 -43 16 c-51 18 -94 55 -110 95 -10 23 -12 241 -10 951 l3 920 24 36 c49 72 -50 66 1225 67 1119 1 1149 1 1180 -18z m-3496 -975 l2 -416 -411 2 -411 3 1 408 c0 224 2 411 5 415 2 4 186 6 408 5 l403 -2 3 -415z m960 0 l2 -416 -285 0 -285 0 0 413 c0 228 2 416 4 418 2 2 130 3 283 3 l278 -2 3 -416z m-1563 -922 l0 -408 -413 -1 c-226 0 -412 2 -412 5 -3 61 0 802 3 807 3 4 189 7 414 6 l408 -1 0 -408z m277 3 c0 -224 -3 -411 -6 -415 -7 -6 -157 -4 -164 3 -6 6 -3 805 3 815 4 7 37 10 87 8 l80 -3 0 -408z m958 -3 l0 -412 -317 5 c-175 3 -361 0 -413 -5 -52 -5 -99 -6 -103 -2 -5 5 -13 769 -7 820 0 3 189 5 420 5 l420 0 0 -411z m330 156 c4 -220 7 -259 23 -287 20 -36 77 -89 114 -106 23 -10 24 -14 21 -91 l-3 -81 -187 -2 c-115 -1 -188 1 -188 7 -4 109 0 803 4 809 4 5 52 8 109 8 l102 -2 5 -255z"/> <path d="M8181 6173 c-13 -3 -45 -26 -70 -52 l-46 -47 -17 -120 c-10 -65 -20 -139 -22 -164 -7 -82 -27 -234 -42 -323 -14 -82 -14 -93 2 -135 21 -59 75 -113 128 -129 61 -19 1283 -18 1346 1 31 9 57 27 88 62 l43 49 -4 100 c-4 106 -18 234 -42 376 -8 47 -15 111 -15 141 0 116 -58 215 -138 237 -36 11 -1158 14 -1211 4z m1196 -119 c28 -21 33 -31 33 -67 1 -23 7 -71 15 -107 8 -36 15 -92 15 -125 0 -33 7 -87 15 -120 8 -33 15 -82 15 -110 0 -27 5 -67 11 -89 13 -48 5 -81 -28 -112 l-26 -24 -639 0 -639 0 -29 22 c-28 20 -30 27 -30 82 0 34 7 88 15 121 8 33 15 87 15 120 0 33 7 89 15 125 8 36 14 92 15 125 0 80 15 130 48 160 l27 25 559 0 559 0 34 -26z"/> <path d="M8018 4827 c-38 -17 -64 -44 -88 -89 -33 -63 -22 -125 34 -186 41 -46 79 -54 249 -54 200 -1 201 0 179 122 -30 159 -105 221 -265 219 -45 0 -94 -6 -109 -12z m223 -125 c22 -19 31 -37 32 -62 l2 -35 -110 3 c-96 3 -112 6 -127 24 -22 25 -23 47 -2 76 13 20 24 22 94 22 73 0 82 -2 111 -28z"/> <path d="M9330 4827 c-45 -14 -130 -100 -130 -131 0 -13 -7 -43 -15 -66 -22 -63 -20 -107 7 -121 35 -19 314 -15 359 4 81 36 118 105 103 196 -7 46 -50 95 -102 117 -40 17 -170 17 -222 1z m213 -127 c17 -29 17 -31 0 -60 -17 -30 -18 -30 -110 -32 -51 -1 -103 -2 -115 -2 -18 -1 -24 5 -26 25 -2 20 6 36 34 63 36 35 39 36 118 36 80 0 82 -1 99 -30z"/> </g> </svg> 